<?xml version="1.0" encoding="UTF-8"?>
<svg id="Layer_1" xmlns="http://www.w3.org/2000/svg" version="1.1" viewBox="78 206 519 264">
  <!-- Generator: Adobe Illustrator 30.3.0, SVG Export Plug-In . SVG Version: 2.1.3 Build 182)  -->
  <defs>
    <style>
      .st0 {
        fill: #fff;
      }

      .st1 {
        fill: #f0f0f0;
      }

      .st2 {
        fill: #fadadd;
      }
    </style>
  </defs>
  <path class="st1" d="M460.4,356.3c0,4.3.9,9,4.9,9.4l6.1.6v1.8c0,0-40.1,0-40.1,0v-77c0-6.4-2.1-12-8.6-12.5-6.8-.5-10.7,5.3-12.3,11.6s-1.5,6.7-1.5,10.3v54.9c0,4.5.3,10,4.6,10.4l6,.6v1.8s-50.6,0-50.6,0c-.5-.2-.4-1.7,0-1.7l5.4-.6c2.3-.2,4.2-2.1,4.4-4.3l.5-5.2v-68.5s-.4-5.3-.4-5.3c-.2-2.1-1.7-4-3.9-4.2l-6.1-.6c-.5,0-.5-1.5,0-1.8,12.4,0,24.5-1.1,36.4-4.5l3.6-.5v16.7c2.7-8.1,8.3-14,16.6-15.8,6.5-1.4,13.2-1.1,19.5.8s9.5,5,12.2,9.8,2,5.1,2.9,8.1c1.2-3.6,2.2-6.7,4.2-9.7,3-4.5,7.4-7.6,12.8-8.9s13.7-1.3,20.3.8,10.8,6.3,13,12.3,2.1,7.1,2.1,11v60.2c0,4.2.9,9,4.6,9.4l6.2.6v1.8s-40.2,0-40.2,0v-77.3c0-5.9-1.7-11.3-7.6-12.1-11.1-1.4-14.9,13-14.9,23.1v54.6Z"/>
  <path class="st1" d="M137.3,370c-12.1.1-24.8-1.4-34.9-8.1s-12.7-15.3-10.8-25.2,2.7-6.7,5.6-8.7c4.9-3.3,11.1-3.5,16.4-1s7.5,6.8,7.9,12c.7,9.1-4.2,15.6-13.3,16.7-4.6.6-8.6-.7-12.5-3.6,4.1,8.8,14.8,13,23.7,14.6s16.8,1.8,25.3.8,19.1-4.5,23.9-12.7,2.8-8.6,2.4-13.2-2.3-8.9-5.9-12.1-5.3-4.4-8.6-5.8l-14.7-6.3c-6.6-2.8-13.1-5.4-19.5-8.8-13.2-7-24.7-15.6-27.3-31.1-1.8-10.8-.6-22.5,6.8-30.9,6.8-7.6,17.8-11.1,27.9-12.5,9.4-1.3,18.8-1.7,28.3-1.3s19.9,2.6,27.6,8.1,10.4,13.5,8.5,21.9-3.7,7.6-7.6,9.3-11.1,2.1-15.9-.9-6.4-7.7-6.4-12.8,3.1-11,7.8-13.5,11.3-2.3,16.6,1.3c-2.1-3.5-5.5-5.5-8.9-7.1-9.4-4.5-23.3-5.4-33.8-4.3-11.5,1.1-21.9,6.5-23,18.6s0,9.4,2.4,13.5c5.2,9.3,17,14.2,26.7,18s16.7,7.1,24.8,11.4,19.6,13.1,22,25c1.3,6.2,1.4,12.5.3,18.7-1.7,9.4-7.3,16.8-15.7,21.4-13,7.1-31.4,8.1-46.3,8.2Z"/>
  <path class="st1" d="M357.8,353v2.4c-5.7,6.6-13.1,11.1-21.9,12.9-9.2,2-18.5,2.2-27.8.8-20.6-3.1-32.4-16.8-35.2-37.1s-1.1-17.1.3-25.7c3.8-23.8,19.1-34.6,42.7-35.3,6.3-.2,12.3.2,18.2,2.1,20.1,5.9,25.9,25.7,23.4,45.4h-55.6c.5,12.1,2.4,25.6,10,34.7,6.6,7.8,15.2,9.7,25.2,9,7.8-.6,14.8-3.7,20.5-9.3ZM324.2,316.7c2.8,0,5.1-1,7-2.6,1.5-1.9,2.5-4.1,2.8-6.6.7-6.6.6-13.3-.5-19.8s-5.2-14.5-13.6-14.8-11.4,3.4-14.2,10.2c-3.7,10.6-3.8,22.4-3.7,33.8h22.3Z"/>
  <path class="st1" d="M529.1,366.3l6-.6c4.2-.4,4.7-5.7,4.7-10.1v-67.5c0-4.4-.3-9.6-4.6-9.9l-6-.5v-1.8c12.6,0,24.7-1.1,36.6-4.4s2.3-.5,3.5-.4v85.2c0,4.3.8,9.1,4.8,9.4l6.1.6v1.8c-.1,0-50.9,0-50.9,0v-1.8Z"/>
  <path class="st1" d="M210.5,366.3l6.1-.6c3.8-.4,4.5-5.3,4.5-9.4v-68.9s-.5-5.3-.5-5.3c-.2-1.9-1.7-3.6-3.6-3.8l-6.5-.6v-1.8c12.7,0,24.9-1.1,36.9-4.5s2.2-.4,3.3-.3v84.6s.5,5.9.5,5.9c.2,2.1,2.1,3.9,4.2,4.1l6.1.6v1.8c-.1,0-51,0-51,0v-1.8Z"/>
  <path class="st1" d="M559.9,260.7c-8.5,1.9-17.8-.5-21-8.6-3.3-8.5-1.3-19.9,8-23.5s10.5-1.9,15.5,0c8.1,3.1,10.4,12.5,8.7,20.8s-5.4,10-11.2,11.3Z"/>
  <path class="st1" d="M251.5,252.2c-3.7,9-15,10.9-23.4,7.7s-6.5-4.3-7.9-8.1c-3.2-8.5-1-19.7,8-23.2s20.2-1.1,23.5,8.3,1.7,10.4-.3,15.3Z"/>
  <path class="st2" d="M209.8,450.9c-4.9.6-9.5.2-13.9-1.8-12.7-5.9-15.3-22.6-11.2-34.9s16.4-17,28.3-13.8c15.5,4.2,19.1,23,14.2,36.5s-9.2,13-17.4,14ZM206.9,446c6.9,0,12.4-4.1,14.6-10.6s2.2-13.9,0-20.4-8-10.3-14.8-10.5-13.7,3.6-16,10.9-2,12.5-.3,18.6,3.7,7.8,7.4,10,5.8,2,9.2,2Z"/>
  <path class="st2" d="M431,437.6h-26.4s-5,11.6-5,11.6c-.9,2-3.3,2.3-4.8,1.1-.5-.8-.7-1.9-.2-2.9l20.1-45.8c.6-1.3,1.9-2,2.9-2.1s2.8.5,3.4,1.9l20.5,46.4c.2.5,0,1.9-.3,2.2s-1,.6-1.7.9c-1.5,0-2.6-.5-3.3-1.8l-5-11.7ZM428.9,432.7l-11.1-26.1-11.2,26.2h22.3Z"/>
  <path class="st2" d="M109.2,446.3c-1.3-.9-1.9-2.3-1.3-3.8s.8-1.1,1.2-1.3c2.1-1,5.3,4.4,15.9,4.7s6,0,8.9-1.1c4.5-1.7,6.9-6.7,4.6-11.1s-3.2-3.2-5.3-3.6l-10.1-2.3c-7.4-1.7-13.8-4.3-14.4-12.6s2.2-10.3,6.9-13.1c8-4.7,20.4-3.6,27.4,2.6s.8,2.9-.1,3.7-2.3.6-3.6-.3c-5.3-3.9-12.6-4.9-18.9-2.6s-7.6,8.2-4.6,12.8,3.4,3,5.5,3.5l11,2.4c4.9,1.1,10.4,3.4,12.1,8.1,2.5,6.8-.9,13.9-7.6,16.7s-20.2,2.2-27.6-2.9Z"/>
  <path class="st2" d="M578.4,447.4c-6.8,4.9-17.3,4.5-25.2,1.8s-4.5-2-6.3-3.6-.8-2.1-.5-3,1.7-2,2.8-1.3c4.4,3,9.1,4.6,14.5,4.7s6.2,0,9-1.2,4.1-2.9,4.6-4.7c.8-2.6.7-5.2-1.1-7.2s-3.6-2.5-5.7-3l-12.3-2.7c-3.5-.8-7-2.6-9-5.6-4.4-6.7-1.8-15.6,5.2-19.4s19.9-3.3,26.9,2.7,1.1,2.4.5,3.4-1.9,1.6-3,.8c-5.6-4.2-13-5.7-19.7-3.3s-7.8,8.1-4.9,12.9,3.5,3,5.5,3.5l10.9,2.4c6.8,1.5,12.7,4.7,13,11.9s-1.7,8.5-5.2,11Z"/>
  <path class="st2" d="M290.1,445.8c5.5.4,10.5-.8,14.6-4s2.6-.9,3.5,0,1.2,2.6.3,3.5c-5.6,5.7-15.6,7-23.4,5.1-15.6-3.9-19.4-22.2-14.9-36.1s7.7-12,14.8-13.9,18.2-.7,23.4,4.9.5,2.6,0,3.3c-.9,1.1-2.5,1.2-3.6.3-4-3.3-8.9-4.4-14.1-4.1s-12.8,4.4-14.7,11.3-1.8,12.7.1,18.8,7.3,10.5,14.1,10.9Z"/>
  <path class="st2" d="M510,450.5h-26.7c-1.5,0-2.7-1.3-2.7-2.9v-45.2c0-1.7,1.3-2.6,2.7-2.7s3.1.9,3.1,2.7v43s23.5,0,23.5,0c1.7,0,2.6,1,2.7,2.5s-.9,2.6-2.7,2.6Z"/>
  <path class="st2" d="M351.8,451c-1.5,0-2.8-.9-2.8-2.4v-46.8c0-1.6,1.8-2.2,2.8-2.2s3,.7,3,2.5v46.3c0,1.7-1.3,2.7-3,2.7Z"/>
  <polygon class="st2" points="315.9 385 104.1 385.7 104.2 384.5 315.9 383.8 315.9 385"/>
  <path class="st2" d="M584.9,384.4l-192.4.7v-1.2s191.7-.7,191.7-.7h.9c.1,0,0,.8-.2,1.3Z"/>
  <path class="st2" d="M351.8,397.3l-1.2-7.9c-.5-3-3-5.3-6-5.7l-8-1.2,8.4-1.1c3-.4,5.2-2.8,5.7-5.8l1.2-7.7,1.1,8c.4,2.9,2.8,5.1,5.6,5.5l8.4,1.1-8.5,1.3c-3,.4-4.8,2.7-5.6,5.5l-1.1,8Z"/>
  <line class="st0" x1="417.8" y1="406.6" x2="428.9" y2="432.7"/>
</svg>